IKResults
version=1
nRows=10
nColumns=67
inDegrees=yes

Units are S.I. units (second, meters, Newtons, ...)
Angles are in degrees.

endheader
time	pelvis_tilt	pelvis_list	pelvis_rotation	pelvis_tx	pelvis_ty	pelvis_tz	hip_flexion_r	hip_adduction_r	hip_rotation_r	knee_angle_r	knee_rot_r	knee_adduc_r	ankle_angle_r	ankle_rot_r	ankle_add_r	subtalar_angle_r	mtp_angle_r	mtp_rot_r	mtp_add_r	hip_flexion_l	hip_adduction_l	hip_rotation_l	knee_angle_l	knee_rot_l	knee_adduc_l	ankle_angle_l	ankle_rot_l	ankle_add_l	subtalar_angle_l	mtp_angle_l	mtp_rot_l	mtp_add_l	lumbar_extension	lumbar_bending	lumbar_rotation	neck_flexion	neck_lateral_bending	neck_rotation	arm_flex_r	arm_add_r	arm_rot_r	elbow_flex_r	elbow_rot_r	elbow_add_r	pro_sup_r	wrist_flex_r	wrist_adduc_r	wrist_rot_r	wrist_dev_r	hand_finger_flex_r	hand_finger_adduc_r	hand_finger_rot_r	arm_flex_l	arm_add_l	arm_rot_l	elbow_flex_l	elbow_rot_l	elbow_add_l	pro_sup_l	wrist_flex_l	wrist_adduc_l	wrist_rot_l	wrist_dev_l	hand_finger_flex_l	hand_finger_adduc_l	hand_finger_rot_l
      0.56000000	     15.10158964	      4.33315500	     -5.56949019	     -0.51676194	      0.72525557	      0.56592748	    -35.94144295	     -4.32153269	      1.77248128	    -12.84822768	     -5.00000000	     -0.31819609	     14.59814861	      2.56864586	      5.00000000	     -1.94268612	      9.80405979	     -1.58930162	      2.00000000	     17.30094750	      3.01731404	     -3.82376456	    -19.52615507	      5.00000000	     -0.26077585	      6.89568169	      5.00000000	     -1.88425935	      3.66979341	     30.96677155	      1.63335361	      1.15434202	    -29.15341091	    -10.54126611	     15.73399959	      0.00000000	      0.00000000	      0.00000000	      0.00000000	      0.00000000	      0.00000000	      0.00000000	      0.00000000	      0.00000000	     -0.00042092	      0.00000000	      0.00000000	      0.00000000	      0.00000000	      0.00000000	      0.00000000	      0.00000000	      0.00000000	      0.00000000	      0.00000000	      0.00000000	      0.00000000	      0.00000000	      0.00000000	      0.00000000	      0.00000000	      0.00000000	      0.00000000	      0.00000000	      0.00000000	      0.00000000
      0.56500000	     14.97849544	      4.43647914	     -5.95157157	     -0.50799992	      0.72456230	      0.56593293	    -35.99209346	     -4.68758059	      1.83921066	    -13.62275328	     -5.00000000	     -0.47047919	     13.92441691	      2.61164612	      5.00000000	     -1.62013132	      9.95605662	     -1.61253574	      2.00000000	     17.37107682	      3.29167112	     -3.66301110	    -20.20364853	      5.00000000	     -0.13401729	      5.72612933	      5.00000000	     -1.85086726	      3.62225138	     30.78338317	      1.62348234	      1.23856191	    -28.53661255	    -10.80772500	     16.01143009	      0.00000000	      0.00000000	      0.00000000	      0.00000000	      0.00000000	      0.00000000	      0.00000000	      0.00000000	      0.00000000	     -0.00042092	      0.00000000	      0.00000000	      0.00000000	      0.00000000	      0.00000000	      0.00000000	      0.00000000	      0.00000000	      0.00000000	      0.00000000	      0.00000000	      0.00000000	      0.00000000	      0.00000000	      0.00000000	      0.00000000	      0.00000000	      0.00000000	      0.00000000	      0.00000000	      0.00000000
      0.57000000	     14.72095715	      4.61660335	     -6.33142202	     -0.49906617	      0.72387475	      0.56590951	    -35.86315929	     -5.07077627	      1.99686184	    -14.42239636	     -5.00000000	     -0.70777630	     13.02379463	      2.49159524	      5.00000000	     -1.09938281	     10.28502022	     -1.67000076	      2.00000000	     17.53002178	      3.70825030	     -3.41282930	    -20.80556112	      5.00000000	      0.07633332	      4.11488638	      5.00000000	     -2.00279563	      3.18212183	     30.45608149	      1.64193710	      1.38169046	    -27.71072752	    -11.15656290	     16.25140266	      0.00000000	      0.00000000	      0.00000000	      0.00000000	      0.00000000	      0.00000000	      0.00000000	      0.00000000	      0.00000000	     -0.00042092	      0.00000000	      0.00000000	      0.00000000	      0.00000000	      0.00000000	      0.00000000	      0.00000000	      0.00000000	      0.00000000	      0.00000000	      0.00000000	      0.00000000	      0.00000000	      0.00000000	      0.00000000	      0.00000000	      0.00000000	      0.00000000	      0.00000000	      0.00000000	      0.00000000
      0.57500000	     14.18103118	      4.54619065	     -6.45281088	     -0.49060640	      0.72291789	      0.56563910	    -35.18947942	     -5.12074795	      2.29002207	    -15.67288419	     -5.00000000	     -0.78785774	     12.07410153	      0.41991280	      5.00000000	      1.80158205	     12.86288172	     -2.00000000	      2.00000000	     18.14577527	      3.79614009	     -1.37043627	    -21.76839197	      5.00000000	     -0.38677921	      1.87004355	      5.00000000	     -5.00000000	      0.45183275	     28.66941190	      1.89217329	      2.00000000	    -26.76067900	    -11.08351007	     16.41119698	      0.00000000	      0.00000000	      0.00000000	      0.00000000	      0.00000000	      0.00000000	      0.00000000	      0.00000000	      0.00000000	     -0.00042092	      0.00000000	      0.00000000	      0.00000000	      0.00000000	      0.00000000	      0.00000000	      0.00000000	      0.00000000	      0.00000000	      0.00000000	      0.00000000	      0.00000000	      0.00000000	      0.00000000	      0.00000000	      0.00000000	      0.00000000	      0.00000000	      0.00000000	      0.00000000	      0.00000000
      0.58000000	     14.11092825	      4.79786973	     -6.82419802	     -0.48175913	      0.72257792	      0.56549491	    -35.05297998	     -5.74504516	      2.18531994	    -16.79253976	     -5.00000000	     -0.71504996	     10.91990001	      0.50800600	      5.00000000	      2.08656647	     13.04963763	     -2.00000000	      2.00000000	     18.07576899	      4.28973599	     -0.87228551	    -22.42018179	      5.00000000	     -0.32907382	      0.28910428	      5.00000000	     -5.00000000	      0.53151694	     28.53682422	      1.89295130	      2.00000000	    -26.21509922	    -11.48738643	     16.57119842	      0.00000000	      0.00000000	      0.00000000	      0.00000000	      0.00000000	      0.00000000	      0.00000000	      0.00000000	      0.00000000	     -0.00042092	      0.00000000	      0.00000000	      0.00000000	      0.00000000	      0.00000000	      0.00000000	      0.00000000	      0.00000000	      0.00000000	      0.00000000	      0.00000000	      0.00000000	      0.00000000	      0.00000000	      0.00000000	      0.00000000	      0.00000000	      0.00000000	      0.00000000	      0.00000000	      0.00000000
      0.58500000	     13.88279716	      5.14076456	     -7.09831486	     -0.47290073	      0.72220890	      0.56525359	    -34.67738357	     -6.28994494	      2.10437573	    -17.98858715	     -5.00000000	     -0.82727066	      9.51269498	      0.45896575	      5.00000000	      2.42910930	     13.37625490	     -2.00000000	      2.00000000	     18.22574394	      4.93528663	     -0.46484855	    -23.14431902	      5.00000000	     -0.15453241	     -1.49046297	      5.00000000	     -5.00000000	      0.19122638	     28.34894094	      1.91424565	      2.00000000	    -25.48775642	    -11.93581247	     16.63316423	      0.00000000	      0.00000000	      0.00000000	      0.00000000	      0.00000000	      0.00000000	      0.00000000	      0.00000000	      0.00000000	     -0.00042092	      0.00000000	      0.00000000	      0.00000000	      0.00000000	      0.00000000	      0.00000000	      0.00000000	      0.00000000	      0.00000000	      0.00000000	      0.00000000	      0.00000000	      0.00000000	      0.00000000	      0.00000000	      0.00000000	      0.00000000	      0.00000000	      0.00000000	      0.00000000	      0.00000000
      0.59000000	     13.99612041	      5.32837582	     -7.34323875	     -0.46452326	      0.72210523	      0.56516660	    -34.44815909	     -6.70867550	      1.97498466	    -19.56681976	     -5.00000000	     -0.84780606	      8.71654973	      0.48441726	      4.95022493	      2.51502134	     13.45822180	     -2.00000000	      2.00000000	     18.14876827	      5.39985322	      0.01207312	    -24.20553635	      5.00000000	     -0.09526834	     -2.22932024	      5.00000000	     -4.99743349	      0.24829266	     28.29910629	      1.91346415	      2.00000000	    -25.33642831	    -12.31766752	     16.70166157	      0.00000000	      0.00000000	      0.00000000	      0.00000000	      0.00000000	      0.00000000	      0.00000000	      0.00000000	      0.00000000	     -0.00042092	      0.00000000	      0.00000000	      0.00000000	      0.00000000	      0.00000000	      0.00000000	      0.00000000	      0.00000000	      0.00000000	      0.00000000	      0.00000000	      0.00000000	      0.00000000	      0.00000000	      0.00000000	      0.00000000	      0.00000000	      0.00000000	      0.00000000	      0.00000000	      0.00000000
      0.59500000	     13.55224427	      5.86180976	     -7.57169879	     -0.45565302	      0.72188342	      0.56478998	    -33.59376381	     -7.60407471	      1.68438087	    -21.07820551	     -5.00000000	     -0.57209855	      6.43048145	      0.48603878	      4.89534324	      2.77395668	     13.76500429	     -2.00000000	      2.00000000	     18.44610685	      6.13976428	      0.52867349	    -24.79893626	      5.00000000	     -0.16792936	     -3.81962904	      5.00000000	     -5.00000000	     -0.38762313	     28.12887352	      1.93117373	      2.00000000	    -24.32539446	    -12.85419248	     16.55075456	      0.00000000	      0.00000000	      0.00000000	      0.00000000	      0.00000000	      0.00000000	      0.00000000	      0.00000000	      0.00000000	     -0.00042092	      0.00000000	      0.00000000	      0.00000000	      0.00000000	      0.00000000	      0.00000000	      0.00000000	      0.00000000	      0.00000000	      0.00000000	      0.00000000	      0.00000000	      0.00000000	      0.00000000	      0.00000000	      0.00000000	      0.00000000	      0.00000000	      0.00000000	      0.00000000	      0.00000000
      0.60000000	     12.72894130	      6.06574796	     -7.35164483	     -0.44741689	      0.72109657	      0.56409353	    -32.14163641	     -7.73876090	      1.36154218	    -23.00399344	     -5.00000000	     -0.62728197	      4.43527044	     -0.51535173	      5.00000000	      3.60660793	     15.36438533	     -2.00000000	      2.00000000	     19.54123201	      6.54706285	      2.03406993	    -26.17391154	      5.00000000	     -0.68790347	     -4.73013914	      5.00000000	     -5.00000000	     -2.76667643	     27.53191995	      2.00000000	      2.00000000	    -23.16104675	    -12.89938509	     16.48353375	      0.00000000	      0.00000000	      0.00000000	      0.00000000	      0.00000000	      0.00000000	      0.00000000	      0.00000000	      0.00000000	     -0.00042092	      0.00000000	      0.00000000	      0.00000000	      0.00000000	      0.00000000	      0.00000000	      0.00000000	      0.00000000	      0.00000000	      0.00000000	      0.00000000	      0.00000000	      0.00000000	      0.00000000	      0.00000000	      0.00000000	      0.00000000	      0.00000000	      0.00000000	      0.00000000	      0.00000000
      0.60500000	     12.69328052	      6.67924363	     -7.46010543	     -0.43907231	      0.72113931	      0.56392944	    -31.50395499	     -8.58091661	      1.24639771	    -24.86623965	     -5.00000000	     -0.37539438	      2.45992329	     -0.47623712	      5.00000000	      3.87137037	     15.77968373	     -2.00000000	      2.00000000	     19.60415054	      7.29621041	      2.49341925	    -27.16115629	      5.00000000	     -1.02129672	     -4.77774753	      5.00000000	     -5.00000000	     -3.08104179	     27.36875811	      2.00000000	      2.00000000	    -22.86146532	    -13.67088799	     16.13089821	      0.00000000	      0.00000000	      0.00000000	      0.00000000	      0.00000000	      0.00000000	      0.00000000	      0.00000000	      0.00000000	     -0.00042092	      0.00000000	      0.00000000	      0.00000000	      0.00000000	      0.00000000	      0.00000000	      0.00000000	      0.00000000	      0.00000000	      0.00000000	      0.00000000	      0.00000000	      0.00000000	      0.00000000	      0.00000000	      0.00000000	      0.00000000	      0.00000000	      0.00000000	      0.00000000	      0.00000000
